<?xml version="1.0" encoding="UTF-8"?>
<!DOCTYPE svg PUBLIC "-//W3C//DTD SVG 1.1//EN" "http://www.w3.org/Graphics/SVG/1.1/DTD/svg11.dtd">
<!-- Creator: CorelDRAW X7 -->
<svg xmlns="http://www.w3.org/2000/svg" xml:space="preserve" width="40px" height="40px" version="1.1" style="shape-rendering:geometricPrecision; text-rendering:geometricPrecision; image-rendering:optimizeQuality; fill-rule:evenodd; clip-rule:evenodd"
viewBox="0 0 69 61"
 xmlns:xlink="http://www.w3.org/1999/xlink">
 <defs>
  <style type="text/css">
   <![CDATA[
    .fil0 {fill:#FEFEFE}
    .fil1 {fill:#0082C9}
   ]]>
  </style>
 </defs>
 <g id="Слой_x0020_1">
  <metadata id="CorelCorpID_0Corel-Layer"/>
  <g id="_248148144">
   <path class="fil0" d="M40 56l25 -31c5,-7 4,-7 -2,-9l-36 -14c-2,0 -6,-3 -9,1l-13 12c-5,4 -5,4 0,10l28 31c2,3 5,4 7,0zm-13 -20l-15 -12c-3,-2 -9,-6 -4,-10l8 -7c2,-2 4,-2 6,2l10 24c1,5 -1,6 -5,3zm18 1l11 -9c8,-7 6,-11 -2,-14l-23 -8c-8,-4 -8,1 -6,5l10 24c3,9 8,3 10,2zm-6 18l17 -22c2,-2 1,-4 -2,-1l-11 9c-4,3 -5,4 -6,8 0,2 0,4 0,6 0,1 1,1 2,0zm-9 -5l-22 -24c-2,-3 -1,-3 2,0l19 14c4,3 6,6 7,9 0,4 -2,6 -6,1z"/>
   <path class="fil1" d="M65 16l-37 -14c-6,-2 -7,-3 -10,0l-17 15c-2,2 -1,3 3,7l28 32c6,8 5,6 9,1l27 -36c3,-4 0,-4 -3,-5zm-25 29c2,-6 3,-9 5,-15 2,-8 -1,-11 -10,-11l-24 1c-4,-1 -7,2 -4,6l21 24c7,8 10,1 12,-5zm-8 -28l-22 1c-3,0 -5,-3 -3,-5l8 -8c4,-3 6,-3 12,0l11 6c6,3 4,6 -6,6zm33 6l-19 25c-3,5 -5,-1 -4,-4 3,-7 4,-10 6,-17 2,-7 6,-10 11,-9l5 0c3,1 3,3 1,5zm-5 -7l-8 -1c-2,0 -4,0 -7,-2l-14 -7c-4,-2 -4,-3 -2,-2l33 12c2,0 3,1 -2,0z"/>
  </g>
 </g>
</svg>
